<?xml version="1.0" encoding="utf-8"?>
<!-- Generator: Adobe Illustrator 19.0.0, SVG Export Plug-In . SVG Version: 6.00 Build 0)  -->
<svg version="1.1" id="Layer_1" xmlns="http://www.w3.org/2000/svg" xmlns:xlink="http://www.w3.org/1999/xlink" x="0px" y="0px"
	 viewBox="0 0 310.5 50.1" style="enable-background:new 0 0 310.5 50.1;" xml:space="preserve">
<g id="XMLID_1_">
	<path id="XMLID_20_" d="M15.6,47.8h26.3L55,25.1L41.9,2.3H15.6L2.5,25.1C6.9,32.7,11.2,40.2,15.6,47.8L15.6,47.8z M14.9,50.1
		c-0.1,0-0.2,0-0.3,0c-0.2-0.1-0.4-0.2-0.5-0.3c-0.1-0.1-0.1-0.2-0.2-0.2L0.2,25.6c0-0.1-0.1-0.2-0.1-0.3C0,25.2,0,25,0,24.8
		c0-0.1,0.1-0.2,0.1-0.3L14,0.6c0.1-0.1,0.1-0.2,0.2-0.2c0.1-0.1,0.3-0.2,0.5-0.3c0.1,0,0.2,0,0.3,0h27.6c0.1,0,0.2,0,0.3,0
		c0.2,0.1,0.4,0.2,0.5,0.3c0.1,0.1,0.1,0.2,0.2,0.2l13.8,23.9c0,0.1,0.1,0.2,0.1,0.3c0.1,0.2,0.1,0.4,0,0.6c0,0.1-0.1,0.2-0.1,0.3
		L43.5,49.6c-0.1,0.1-0.1,0.2-0.2,0.2c-0.1,0.1-0.3,0.2-0.5,0.3c-0.1,0-0.2,0-0.3,0C33.3,50.1,24.1,50.1,14.9,50.1L14.9,50.1z"/>
	<path id="XMLID_17_" d="M14.9,50.1c-0.1,0-0.2,0-0.3,0c-0.1,0-0.2-0.1-0.3-0.1c-0.2-0.1-0.3-0.2-0.4-0.4c-0.1-0.1-0.1-0.2-0.1-0.3
		c0-0.1,0-0.2,0-0.3V1.1c0-0.3,0-0.3,0.2-0.6c0.1-0.1,0.1-0.2,0.2-0.2c0.1-0.1,0.3-0.2,0.5-0.3c0.1,0,0.2,0,0.3,0
		c0.3,0,0.3,0.1,0.6,0.2l41.4,23.9c0.2,0.2,0.3,0.2,0.4,0.4c0.1,0.2,0.2,0.4,0.2,0.6c0,0.1,0,0.2,0,0.3c0,0.1-0.1,0.2-0.1,0.3
		c-0.1,0.2-0.2,0.3-0.4,0.4L15.5,50l-0.3,0.1C15.1,50.1,15,50.1,14.9,50.1L14.9,50.1z M16.1,47L54,25.1L16.1,3.1
		C16.1,17.8,16.1,32.4,16.1,47L16.1,47z"/>
	<path id="XMLID_14_" d="M42.5,50.1c-0.3,0-0.3,0-0.6-0.2L0.6,26.1c-0.2-0.2-0.3-0.2-0.4-0.4C0.1,25.5,0,25.3,0,25.1
		c0-0.1,0-0.2,0-0.3c0-0.1,0.1-0.2,0.1-0.3c0.1-0.2,0.2-0.3,0.4-0.4L42,0.2C42.2,0.1,42.3,0,42.5,0c0.1,0,0.2,0,0.3,0
		c0.2,0.1,0.4,0.2,0.5,0.3c0.1,0.1,0.1,0.2,0.2,0.2c0.1,0.2,0.1,0.3,0.2,0.6V49c0,0.1,0,0.2,0,0.3c-0.1,0.2-0.2,0.4-0.3,0.5
		c-0.1,0.1-0.2,0.1-0.2,0.2C43,50,42.9,50,42.8,50.1C42.7,50.1,42.6,50.1,42.5,50.1L42.5,50.1z M41.4,47V3.1L3.4,25.1
		C16.1,32.4,28.7,39.7,41.4,47L41.4,47z"/>
	<path id="XMLID_3_" d="M28.7,26.2c-0.3,0-0.3,0-0.6-0.2l-13.8-8c-0.1-0.1-0.2-0.1-0.2-0.2c-0.1-0.1-0.2-0.3-0.3-0.5
		c0-0.1,0-0.2,0-0.3c0-0.1,0-0.2,0-0.3c0.1-0.2,0.2-0.4,0.3-0.5c0.1-0.1,0.2-0.1,0.2-0.2c0.1-0.1,0.2-0.1,0.3-0.1c0.1,0,0.2,0,0.3,0
		c0.3,0,0.3,0.1,0.6,0.2l13.2,7.6L42,16.1l0.3-0.1c0.3,0,0.3-0.1,0.6,0c0.1,0,0.2,0.1,0.3,0.1c0.1,0.1,0.2,0.1,0.2,0.2
		c0.1,0.1,0.2,0.3,0.3,0.5c0,0.1,0,0.2,0,0.3c0,0.1,0,0.2,0,0.3c-0.1,0.2-0.2,0.4-0.3,0.5c-0.1,0.1-0.2,0.1-0.2,0.2l-13.8,8L29,26.2
		C28.9,26.2,28.8,26.2,28.7,26.2L28.7,26.2z"/>
	<path id="XMLID_2_" d="M28.7,26.2c-0.3,0-0.3,0-0.6-0.2l-13.8-8c-0.1-0.1-0.2-0.1-0.2-0.2c-0.1-0.1-0.2-0.3-0.3-0.5
		c0-0.1,0-0.2,0-0.3c0-0.1,0-0.2,0-0.3c0.1-0.2,0.2-0.4,0.3-0.5c0.1-0.1,0.2-0.1,0.2-0.2c0.1-0.1,0.2-0.1,0.3-0.1c0.1,0,0.2,0,0.3,0
		c0.3,0,0.3,0.1,0.6,0.2l13.2,7.6L42,16.1l0.3-0.1c0.3,0,0.3-0.1,0.6,0c0.1,0,0.2,0.1,0.3,0.1c0.1,0.1,0.2,0.1,0.2,0.2
		c0.1,0.1,0.2,0.3,0.3,0.5c0,0.1,0,0.2,0,0.3c0,0.1,0,0.2,0,0.3c-0.1,0.2-0.2,0.4-0.3,0.5c-0.1,0.1-0.2,0.1-0.2,0.2l-13.8,8L29,26.2
		C28.9,26.2,28.8,26.2,28.7,26.2L28.7,26.2z"/>
	<path id="XMLID_10_" d="M28.7,41.8c-0.1,0-0.1,0-0.2,0c-0.1,0-0.2,0-0.2-0.1c-0.2-0.1-0.3-0.2-0.4-0.3c-0.1-0.1-0.2-0.3-0.2-0.4
		c0-0.1,0-0.2,0-0.2c0,0,0-0.1,0-0.1V25.1c0-0.1,0-0.1,0-0.2c0-0.1,0-0.2,0.1-0.3c0-0.1,0.1-0.2,0.2-0.3c0.1-0.1,0.2-0.2,0.3-0.2
		c0.1-0.1,0.3-0.1,0.4-0.1c0.1,0,0.2,0,0.3,0c0.1,0,0.2,0,0.3,0.1c0.1,0.1,0.2,0.1,0.3,0.2c0.1,0.1,0.1,0.2,0.2,0.3
		c0.1,0.1,0.1,0.2,0.1,0.3c0,0.1,0,0.1,0,0.2c0,0,0,0.1,0,0.1v15.6c0,0.1,0,0.1,0,0.2c0,0.1,0,0.2-0.1,0.2c-0.1,0.2-0.2,0.3-0.3,0.4
		c-0.1,0.1-0.3,0.2-0.4,0.3c-0.1,0-0.2,0-0.2,0.1C28.8,41.8,28.8,41.8,28.7,41.8C28.8,41.8,28.7,41.8,28.7,41.8L28.7,41.8z"/>
	<g id="XMLID_11_">
		<path id="XMLID_22_" d="M103.2,3.2c-0.1-0.6-0.4-0.8-0.6-0.8h-5.2c0,0-0.5,0-0.7,0.8l-4.3,29.8L88,3.2c-0.1-0.8-0.7-0.8-0.7-0.8
			h-5.2c0,0-0.5,0-0.5,0.8L89,47.4c0.1,0.8,0.9,0.8,0.9,0.8h5c0,0,0.7,0,0.9-0.8l4.2-25.7l4.3,25.7c0.1,0.8,0.9,0.8,0.9,0.8h5
			c0,0,0.7,0,0.8-0.8l7.3-44.1c0.1-0.8-0.4-0.8-0.4-0.8h-5.2c0,0-0.5,0-0.7,0.8l-4.3,29.8L103.2,3.2L103.2,3.2z"/>
		<path id="XMLID_21_" d="M141.8,27.2v20.2c0,0.5,0.3,0.8,0.7,0.8h4.8c0.4,0,0.7-0.3,0.7-0.8V3.2c0-0.5-0.3-0.8-0.7-0.8h-4.8
			c-0.4,0-0.7,0.3-0.7,0.8V21h-7.6V3.2c0-0.5-0.3-0.8-0.7-0.8h-4.7c-0.5,0-0.8,0.3-0.8,0.8v44.1c0,0.5,0.3,0.8,0.8,0.8h4.7
			c0.4,0,0.7-0.3,0.7-0.8V27.2H141.8L141.8,27.2z"/>
		<path id="XMLID_19_" d="M165.2,3.2c0-0.5-0.3-0.8-0.7-0.8h-4.7c-0.5,0-0.8,0.3-0.8,0.8v44.1c0,0.5,0.3,0.8,0.8,0.8h4.7
			c0.4,0,0.7-0.3,0.7-0.8V3.2L165.2,3.2z"/>
		<path id="XMLID_30_" d="M176.2,47.4c0,0.5,0.3,0.8,0.8,0.8h4.7c0.4,0,0.7-0.3,0.7-0.8V29.8h7.1c3.5,0,6.4-3,6.4-6.7v-14
			c0-3.7-2.9-6.7-6.4-6.7H177c-0.5,0-0.8,0.3-0.8,0.8V47.4L176.2,47.4z M189.6,22.2c0,0.9-0.7,1.7-1.6,1.7h-5.5V8.7h5.5
			c0.9,0,1.6,0.8,1.6,1.7V22.2L189.6,22.2z"/>
		<path id="XMLID_15_" d="M205.9,47.4c0,0.5,0.3,0.8,0.8,0.8h17c0.4,0,0.7-0.3,0.7-0.8v-4.6c0-0.5-0.3-0.8-0.7-0.8h-11.5V3.2
			c0-0.5-0.3-0.8-0.7-0.8h-4.7c-0.5,0-0.8,0.3-0.8,0.8V47.4L205.9,47.4z"/>
		<path id="XMLID_26_" d="M242.4,17l2.4,18.1H240L242.4,17L242.4,17z M239.9,2.4c0,0-0.7,0-0.8,0.8l-7.3,44.1
			c-0.1,0.8,0.4,0.8,0.4,0.8h5.2c0,0,0.5,0,0.6-0.8l1-6.1h6.6l1,6.1c0.1,0.8,0.6,0.8,0.6,0.8h5.2c0,0,0.5,0,0.4-0.8l-7.3-44.1
			c-0.1-0.8-0.8-0.8-0.8-0.8H239.9L239.9,2.4z"/>
		<path id="XMLID_12_" d="M260.7,41.8c0,3.8,2.9,6.7,6.4,6.7h6.9c3.5,0,6.4-3,6.4-6.7V28.2c0-3.8-2.9-6.7-6.4-6.7h-5.4
			c-0.9,0-1.6-0.8-1.6-1.7V10c0-1,0.7-1.7,1.6-1.7h3.6c0.9,0,1.6,0.7,1.6,1.7v3c0,0.5,0.4,0.8,0.8,0.8h4.7c0.5,0,0.8-0.3,0.8-0.8
			V8.8c0-3.8-2.9-6.7-6.4-6.7h-6.6c-3.5,0-6.4,2.9-6.4,6.7v12c0,3.7,2.9,6.7,6.4,6.7h5.4c0.9,0,1.6,0.8,1.6,1.7v11.6
			c0,0.9-0.7,1.7-1.6,1.7h-4c-0.9,0-1.6-0.8-1.6-1.7v-6.1c0-0.5-0.3-0.8-0.8-0.8h-4.7c-0.4,0-0.8,0.3-0.8,0.8V41.8L260.7,41.8z"/>
		<path id="XMLID_24_" d="M304.3,27.2v20.2c0,0.5,0.3,0.8,0.7,0.8h4.8c0.4,0,0.7-0.3,0.7-0.8V3.2c0-0.5-0.3-0.8-0.7-0.8H305
			c-0.4,0-0.7,0.3-0.7,0.8V21h-7.6V3.2c0-0.5-0.3-0.8-0.7-0.8h-4.7c-0.5,0-0.8,0.3-0.8,0.8v44.1c0,0.5,0.3,0.8,0.8,0.8h4.7
			c0.4,0,0.7-0.3,0.7-0.8V27.2H304.3L304.3,27.2z"/>
	</g>
</g>
</svg>
