<?xml version="1.0" encoding="utf-8"?>
<!-- Generator: Adobe Illustrator 19.0.0, SVG Export Plug-In . SVG Version: 6.00 Build 0)  -->
<svg version="1.1" id="Layer_1" xmlns="http://www.w3.org/2000/svg" xmlns:xlink="http://www.w3.org/1999/xlink" x="0px" y="0px"
	 viewBox="0 0 881.9 827.7" style="enable-background:new 0 0 881.9 827.7;" xml:space="preserve">
<g>
	<path d="M296.8,544.7c0.1,0,0.2,0,0.3,0.1c0.1,0,0.1,0,0.2,0c0.8,0.1,1.5,0.1,2.3,0.2c100,0,200,0,300,0c1.1-0.1,2.2-0.1,3.2-0.4
		c0,0,0,0,0,0c0,0,0,0,0,0c0,0,0,0,0,0c0.8-0.2,1.5-0.5,2.2-0.8c0.3-0.1,0.5-0.2,0.8-0.4c0.8-0.5,1.6-1,2.2-1.7
		c0.1-0.1,0.3-0.2,0.4-0.3c0,0,0,0,0,0s0,0,0,0c0.2-0.2,0.4-0.4,0.6-0.7c0.5-0.6,1-1.2,1.4-1.9c0,0,0,0,0,0l150-260c0,0,0,0,0,0
		c0.4-0.7,0.7-1.4,0.9-2.1c0.1-0.3,0.2-0.6,0.3-0.9c0.4-1.6,0.5-3.2,0.3-4.9c0-0.2-0.1-0.4-0.1-0.6c-0.1-0.3-0.1-0.7-0.2-1
		c-0.1-0.3-0.2-0.6-0.3-0.9c-0.3-0.7-0.6-1.5-1-2.1c0,0,0,0,0,0l-150-260c0,0,0,0,0,0c-0.4-0.7-0.9-1.3-1.4-1.9
		c-0.2-0.2-0.4-0.5-0.6-0.7c0,0,0,0,0,0c0,0,0,0,0,0c-0.2-0.2-0.4-0.4-0.7-0.6c-0.2-0.2-0.4-0.3-0.6-0.5c-0.2-0.1-0.4-0.3-0.6-0.4
		c-0.3-0.2-0.5-0.4-0.8-0.5c-0.2-0.1-0.4-0.2-0.6-0.3c-0.3-0.1-0.6-0.3-0.9-0.4c-0.5-0.2-1-0.4-1.6-0.5c0,0,0,0,0,0
		c-0.3-0.1-0.6-0.1-0.8-0.2c-0.8-0.1-1.6-0.2-2.3-0.2c0,0,0,0,0,0h-300c0,0,0,0,0,0c-0.8,0-1.6,0.1-2.3,0.2c-0.3,0-0.6,0.1-0.8,0.2
		c0,0,0,0,0,0c-0.5,0.1-1,0.3-1.6,0.5c-0.3,0.1-0.6,0.3-0.9,0.4c-0.2,0.1-0.4,0.2-0.6,0.3c-0.3,0.2-0.5,0.3-0.8,0.5
		c-0.2,0.1-0.4,0.2-0.6,0.4c-0.2,0.2-0.4,0.3-0.6,0.5c-0.2,0.2-0.5,0.4-0.7,0.6c0,0,0,0,0,0c0,0,0,0,0,0c-0.2,0.2-0.4,0.4-0.6,0.7
		c-0.5,0.6-1,1.2-1.4,1.9c0,0,0,0,0,0l-150,260c0,0,0,0,0,0c-0.4,0.7-0.7,1.4-1,2.1c-0.1,0.3-0.2,0.6-0.3,0.9
		c-0.4,1.6-0.5,3.2-0.3,4.9c0,0.2,0.1,0.4,0.1,0.6c0.1,0.3,0.1,0.6,0.2,1c0.1,0.3,0.2,0.6,0.3,0.9c0.3,0.7,0.6,1.5,1,2.1
		c0,0,0,0,0,0l150,260c0,0,0,0,0,0c0,0,0,0,0,0c0.4,0.7,0.9,1.3,1.4,1.9c0.2,0.2,0.4,0.5,0.6,0.7c1.6,1.6,3.5,2.7,5.6,3.2
		c0,0,0,0,0,0c0,0,0,0,0,0C296.4,544.6,296.6,544.6,296.8,544.7z M312,380.8l112.5,65l-112.5,65C312,467.5,312,424.2,312,380.8z
		 M462,424.2V279.7l125-72.1V352L462,424.2z M587,380.8v130c-37.5-21.7-75-43.3-112.5-65L587,380.8z M612,207.5l112.5,65l-112.5,65
		V207.5z M587,164.2l-112.5-65l112.5-65V164.2z M574.6,185.9l-125.1,72.2l-125.1-72.2l125.1-72.3L574.6,185.9z M312,164.2
		c0-43.3,0-86.7,0-130l112.5,65L312,164.2z M312,207.6l125,72.1v144.5c-41.7-24.1-83.3-48.1-125-72.2C312,303.8,312,255.7,312,207.6
		z M287,337.5c-37.5-21.7-75-43.3-112.5-65l112.5-65V337.5z M449.5,460.3L552.9,520H346.1L449.5,460.3z M612,366.4l103.4-59.7
		L612,485.8V366.4z M612,178.6V59.2l103.4,179.2L612,178.6z M449.5,84.7L346.1,25h206.8L449.5,84.7z M287,178.6l-103.4,59.7
		L287,59.2V178.6z M287,366.4v119.4c-34.5-59.7-68.9-119.4-103.4-179.2L287,366.4z"/>
	<path d="M138.8,650.1h-20.2c0,0-2.1,0-2.6,3.2L99.4,768.2L82.7,653.3c-0.5-2.5-1.6-2.9-2.3-3.2H60.2c0,0-2.1,0-2.6,3.2L41,768.2
		L24.4,653.3c-0.5-3.2-2.6-3.2-2.6-3.2H1.9c0,0-2.1,0-1.9,3.2l28.1,170c0.5,3.2,3.3,3.2,3.3,3.2h19.2c0,0,2.8,0,3.3-3.2l16.2-99.2
		l16.4,99.2c0.5,3.2,3.3,3.2,3.3,3.2h19.4c0,0,2.6,0,3-3.2l28.1-170C140.9,650.1,138.8,650.1,138.8,650.1z"/>
	<path d="M252.9,650.1h-18.5c-1.6,0-2.8,1.2-2.8,3.2v68.4h-29.3v-68.4c0-2-1.2-3.2-2.8-3.2h-18.3c-1.9,0-3,1.2-3,3.2v170
		c0,2,1.2,3.2,3,3.2h18.3c1.6,0,2.8-1.2,2.8-3.2v-77.7h29.3v77.7c0,2,1.2,3.2,2.8,3.2h18.5c1.6,0,2.8-1.2,2.8-3.2v-170
		C255.7,651.3,254.5,650.1,252.9,650.1z"/>
	<path d="M319.2,650.1h-18.3c-1.9,0-3,1.2-3,3.2v170c0,2,1.2,3.2,3,3.2h18.3c1.6,0,2.8-1.2,2.8-3.2v-170
		C322,651.3,320.8,650.1,319.2,650.1z"/>
	<path d="M415.5,650.1h-48.3c-1.9,0-3,1.2-3,3.2v170c0,2,1.2,3.2,3,3.2h18.3c1.6,0,2.8-1.2,2.8-3.2v-67.6h27.2
		c13.4,0,24.6-11.5,24.6-25.7v-54.1C440.1,661.6,428.9,650.1,415.5,650.1z M415.7,726.3c0,3.4-2.6,6.4-6.1,6.4h-21.3v-58.6h21.3
		c3.5,0,6.1,2.9,6.1,6.4V726.3z"/>
	<path d="M547.2,802.5h-44.3V653.3c0-2-1.2-3.2-2.8-3.2h-18.3c-1.9,0-3,1.2-3,3.2v170c0,2,1.2,3.2,3,3.2h65.4c1.6,0,2.8-1.2,2.8-3.2
		v-17.6C550,803.7,548.9,802.5,547.2,802.5z"/>
	<path d="M632,653.3c-0.2-3.2-3-3.2-3-3.2h-19.4c0,0-2.8,0-3,3.2l-28.1,170c-0.5,3.2,1.6,3.2,1.6,3.2h20.2c0,0,2.1,0,2.3-3.2l4-23.5
		H632l4,23.5c0.2,3.2,2.3,3.2,2.3,3.2h20.2c0,0,2.1,0,1.6-3.2L632,653.3z M610.3,775.8l8.9-69.6l9.1,69.6H610.3z"/>
	<path d="M741,723.8h-20.9c-3.3,0-6.1-2.9-6.1-6.4v-38c0-3.7,2.8-6.4,6.1-6.4h14.1c3.5,0,6.1,2.7,6.1,6.4V691c0,2,1.4,3.2,3,3.2
		h18.3c1.9,0,3-1.2,3-3.2v-16.2c0-14.5-11.2-25.7-24.6-25.7h-25.5c-13.6,0-24.8,11.3-24.8,25.7v46.3c0,14.2,11.2,25.7,24.8,25.7
		h20.9c3.3,0,6.1,2.9,6.1,6.4v44.8c0,3.4-2.8,6.4-6.1,6.4h-15.2c-3.3,0-6.1-2.9-6.1-6.4v-23.5c0-2-1.2-3.2-3-3.2h-18.3
		c-1.6,0-3,1.2-3,3.2v27.2c0,14.5,11.2,26,24.8,26H741c13.6,0,24.6-11.5,24.6-26v-52.2C765.6,735.1,754.6,723.8,741,723.8z"/>
	<path d="M879,650.1h-18.5c-1.6,0-2.8,1.2-2.8,3.2v68.4h-29.3v-68.4c0-2-1.2-3.2-2.8-3.2h-18.3c-1.9,0-3,1.2-3,3.2v170
		c0,2,1.2,3.2,3,3.2h18.3c1.6,0,2.8-1.2,2.8-3.2v-77.7h29.3v77.7c0,2,1.2,3.2,2.8,3.2H879c1.6,0,2.8-1.2,2.8-3.2v-170
		C881.9,651.3,880.7,650.1,879,650.1z"/>
</g>
</svg>
